<svg version="1.1" viewBox="0 0 28 28" xmlns="http://www.w3.org/2000/svg" xmlns:xlink="http://www.w3.org/1999/xlink">
  <defs>
    <style>
      .xicon {fill:#003660;fill-rule:evenodd;}
    </style>
  </defs>
  <path class="xicon" d="M19.5,5.2h-11c-1.8,0-3.2,1.5-3.2,3.2v11c0,1.8,1.5,3.2,3.2,3.2h11c1.8,0,3.2-1.5,3.2-3.2v-11c0-1.8-1.5-3.2-3.2-3.2ZM16.6,20.6l-3.5-5.1-4.4,5.1h-1.1l5-5.8-5-7.3h3.8l3.3,4.8,4.2-4.8h1.1l-4.8,5.6h0l5.2,7.6h-3.8ZM14.6,13.7l4.3,6.1h-1.7l-3.5-5h0s-.5-.7-.5-.7l-4.1-5.8h1.7l3.3,4.7.5.7Z"/>
</svg>