<?xml version="1.0" encoding="UTF-8"?>
<svg id="Laundry" xmlns="http://www.w3.org/2000/svg" version="1.1" viewBox="0 0 100 100">
  <!-- Generator: Adobe Illustrator 30.0.0, SVG Export Plug-In . SVG Version: 2.1.1 Build 123)  -->
  <defs>
    <style>
      .st0 {
        fill: #a1afba;
        fill-rule: evenodd;
      }
    </style>
  </defs>
  <g id="ICONS">
    <path class="st0" d="M4.9,92.7h12.6v-29.1s-5.4,0-5.4,0c-.7,0-1.2-.5-1.2-1.2h0V7.3s-5.9,0-5.9,0v85.3ZM18.7,61.2h-5.5V7.3h10.9v53.9h-5.5ZM25.4,63.6h-5.4v29.1s18.4,0,18.4,0V7.3c0,0-11.8,0-11.8,0v55.1c0,.7-.6,1.2-1.2,1.2h0ZM55,61.2h10.9V7.3s-10.9,0-10.9,0v53.9h0ZM53.8,4.9h42.5c.7,0,1.2.5,1.2,1.2v87.7c0,.7-.6,1.2-1.2,1.2H18.9c0,0-.2,0-.3,0H3.7c-.7,0-1.2-.5-1.2-1.2h0s0-87.8,0-87.8c0-.7.5-1.2,1.2-1.2h50.1s0,0,0,0h0ZM81.3,61.2h5.4V7.4s-10.8,0-10.8,0v53.9s5.4,0,5.4,0h0,0ZM87.9,63.6h-5.4v29.1s12.6,0,12.6,0V7.3s-5.9,0-5.9,0v55.1c0,.7-.6,1.2-1.2,1.2h0ZM61.6,92.2v-28.6h5.5c.7,0,1.2-.5,1.2-1.2V7.3h5.2v55.1c0,.7.5,1.2,1.2,1.2h5.4v28.6h-18.5,0ZM59.2,92.2h-18.5V7.3h11.9v55.1c0,.7.5,1.2,1.2,1.2h5.4v28.6s0,0,0,0Z"/>
  </g>
</svg>