<?xml version="1.0" encoding="UTF-8"?>
<svg id="Laundry" xmlns="http://www.w3.org/2000/svg" viewBox="0 0 108 108">
<defs>
    <style>
      .st0 {
        fill: #a1afba;
      }
    </style>
  </defs>
  <path class="st0" d="M70.02,54.54c0,21.1-9.15,46.75-9.15,46.75l-4.99-7.72-6.29,7.7s-9.13-25.65-9.13-46.72c0-27.91,15.27-50.54,15.27-50.54,0,0,14.29,22.63,14.29,50.54ZM55.29,8s-13.42,20.55-13.42,45.89c0,19.14,8.29,42.43,8.29,42.43l5.71-6.99,4.53,7.01s8.31-23.29,8.31-42.45c0-25.35-13.42-45.89-13.42-45.89ZM56.74,92h-2V7h2v85Z"/>
  <path class="st0" d="M101.74,85l-1,3.01L82.08,30.08l.66-3L101.74,85Z"/>
  <path class="st0" d="M102.8,79.24l-1,3-18.66-57.92.66-3L102.8,79.24Z"/>
  <path class="st0" d="M105.74,53.88c0,26.87-6.34,48.65-14.16,48.65s-14.16-21.78-14.16-48.65,14.16-48.65,14.16-48.65c0,0,14.16,21.78,14.16,48.65ZM91.74,12s-12.56,19.32-12.56,43.15,5.62,43.15,12.56,43.15,12.56-19.32,12.56-43.15-12.56-43.15-12.56-43.15Z"/>
  <path class="st0" d="M30.61,53.88c0,26.87-6.34,48.65-14.16,48.65S2.29,80.74,2.29,53.88,16.45,5.23,16.45,5.23c0,0,14.16,21.78,14.16,48.65ZM16.5,10.72S3.74,30.35,3.74,54.56s5.71,43.84,12.76,43.84,12.76-19.63,12.76-43.84S16.5,10.72,16.5,10.72Z"/>
  <path class="st0" d="M29.74,52H2.74v2h27v-2ZM29.8,55H2.8v1.21h27v-1.21ZM29.8,56.61H2.8v1.21h27v-1.21Z"/>
</svg>